<svg xmlns="http://www.w3.org/2000/svg" xmlns:xlink="http://www.w3.org/1999/xlink" width="57" height="51" viewBox="0 0 57 51"><defs><path id="plj5a" d="M781.01 2538.07V2537c9.02-12.73 11.67-19.37 12.2-25.47-5.83-.53-10.07-5.04-10.07-10.62 0-6.1 5.03-10.88 11.13-10.88 6.1 0 10.88 4.78 10.88 11.94 0 8.23-3.45 19.11-19.1 39.02H785zm32.36 0V2537c9.02-12.73 11.67-19.37 11.93-25.47a10.68 10.68 0 0 1-9.81-10.62c0-6.1 4.77-10.88 10.87-10.88s10.88 4.78 10.88 11.94c.26 8.23-3.19 19.11-19.1 39.02h-.8z"/><linearGradient id="plj5b" x1="837.01" x2="781.01" y1="2514.03" y2="2516.98" gradientUnits="userSpaceOnUse"><stop offset="0" stop-color="#a7172b"/><stop offset="1" stop-color="#ed002d"/></linearGradient></defs><g><g transform="translate(-781 -2490)"><use xlink:href="#plj5a"/><use fill="url(#plj5b)" xlink:href="#plj5a"/></g></g></svg>