<svg xmlns="http://www.w3.org/2000/svg" xmlns:xlink="http://www.w3.org/1999/xlink" width="1109" height="627" viewBox="0 0 1109 627"><defs><path id="r7qma" d="M647.08 1155.5c46.53 0 89.92 13.47 126.48 36.71 46.81-48.73 112.62-79.05 185.52-79.05 77.99 0 147.87 34.71 195.04 89.54a233.42 233.42 0 0 1 122.28-39.9 51.09 51.09 0 1 1 86.44 12.95c91.52 32.01 157.16 119.14 157.16 221.6 0 129.65-105.07 234.74-234.69 234.74a233.8 233.8 0 0 1-96.8-20.83 137.46 137.46 0 0 1-113.46 59.74c-39.7 0-75.48-16.81-100.6-43.7-5.08.3-10.2.45-15.37.45a256.1 256.1 0 0 1-159.78-55.64 235.1 235.1 0 0 1-152.22 55.64c-130.38 0-236.08-105.72-236.08-236.13 0-130.4 105.7-236.12 236.08-236.12z"/><path id="r7qmb" d="M539 1044c14.36 0 26 11.86 26 26.5s-11.64 26.5-26 26.5-26-11.86-26-26.5 11.64-26.5 26-26.5z"/><path id="r7qmc" d="M1477 1603c13.25 0 24 11.2 24 25s-10.75 25-24 25c-13.26 0-24-11.2-24-25s10.74-25 24-25z"/></defs><g><g transform="translate(-411 -1044)"><use fill="#fff" xlink:href="#r7qma"/></g><g transform="translate(-411 -1044)"><use fill="#fff" xlink:href="#r7qmb"/></g><g transform="translate(-411 -1044)"><use fill="#fff" xlink:href="#r7qmc"/></g></g></svg>