<?xml version="1.0" encoding="utf-8"?>
<!-- Generator: Adobe Illustrator 21.0.1, SVG Export Plug-In . SVG Version: 6.00 Build 0)  -->
<svg version="1.1" id="Layer_1" xmlns="http://www.w3.org/2000/svg" xmlns:xlink="http://www.w3.org/1999/xlink" x="0px" y="0px"
	 viewBox="0 0 626.7 311.5" style="enable-background:new 0 0 626.7 311.5;" xml:space="preserve">
<style type="text/css">
	.st0{fill:#E51A34;}
	.st1{fill:#FFFFFF;}
	.st2{font-family:'Roboto-Regular';}
	.st3{font-size:11px;}
	.st4{letter-spacing:-2;}
	.st5{clip-path:url(#SVGID_2_);fill:none;stroke:#B4B4B4;stroke-width:1.76;stroke-miterlimit:10;}
	.st6{clip-path:url(#SVGID_2_);fill:#B4B4B4;}
	.st7{clip-path:url(#SVGID_2_);}
	.st8{fill:#B0B0B0;}
	.st9{font-size:17px;}
	.st10{clip-path:url(#SVGID_4_);}
</style>
<rect x="166.7" y="118.1" class="st0" width="298.7" height="39.7"/>
<text transform="matrix(1 0 0 1 182 136.3037)"><tspan x="0" y="0" class="st1 st2 st3">HPQC, JIRA, Selenium </tspan><tspan x="110.9" y="0" class="st1 st2 st3">W</tspan><tspan x="120.2" y="0" class="st1 st2 st3">ebdri</tspan><tspan x="145.1" y="0" class="st1 st2 st3">v</tspan><tspan x="150.5" y="0" class="st1 st2 st3">e</tspan><tspan x="156.3" y="0" class="st1 st2 st3">r</tspan><tspan x="159.2" y="0" class="st1 st2 st3">, Junit, </tspan></text>
<text transform="matrix(1 0 0 1 182 149.3057)"><tspan x="0" y="0" class="st1 st2 st3">S</tspan><tspan x="6.7" y="0" class="st1 st2 st3">O</tspan><tspan x="14.1" y="0" class="st1 st2 st3">AP UI, </tspan><tspan x="46.3" y="0" class="st1 st2 st3">T</tspan><tspan x="52.3" y="0" class="st1 st2 st3">est</tspan><tspan x="67.6" y="0" class="st1 st2 st3">T</tspan><tspan x="73.8" y="0" class="st1 st2 st3">rack, Bugzilla</tspan></text>
<text transform="matrix(1 0 0 1 410.998 142.3096)" class="st1 st2 st3">Mantis</text>
<rect x="198" y="207.5" class="st0" width="295.3" height="39.7"/>
<text transform="matrix(1 0 0 1 219.3335 225.6377)"><tspan x="0" y="0" class="st1 st2 st3">PH</tspan><tspan x="14.7" y="0" class="st1 st2 st3 st4">P</tspan><tspan x="19.6" y="0" class="st1 st2 st3">, J</tspan><tspan x="30.5" y="0" class="st1 st2 st3">av</tspan><tspan x="41.9" y="0" class="st1 st2 st3">aScript, Angula</tspan><tspan x="116.5" y="0" class="st1 st2 st3">r</tspan><tspan x="119.4" y="0" class="st1 st2 st3">, </tspan><tspan x="124.3" y="0" class="st1 st2 st3">H</tspan><tspan x="131.9" y="0" class="st1 st2 st3">TML, </tspan></text>
<text transform="matrix(1 0 0 1 219.3335 238.6397)"><tspan x="0" y="0" class="st1 st2 st3">CSS, </tspan><tspan x="25.3" y="0" class="st1 st2 st3">T</tspan><tspan x="31.5" y="0" class="st1 st2 st3">ype Script, jQue</tspan><tspan x="108.2" y="0" class="st1 st2 st3">r</tspan><tspan x="112.1" y="0" class="st1 st2 st3">y</tspan><tspan x="116.8" y="0" class="st1 st2 st3">, </tspan></text>
<text transform="matrix(1 0 0 1 410.9971 225.6377)"><tspan x="0" y="0" class="st1 st2 st3">P</tspan><tspan x="7.1" y="0" class="st1 st2 st3">ython, React, </tspan></text>
<text transform="matrix(1 0 0 1 410.9971 238.6397)" class="st1 st2 st3">Node.js</text>
<rect x="230" y="252.5" class="st0" width="290" height="39.7"/>
<text transform="matrix(1 0 0 1 248 270.6377)"><tspan x="0" y="0" class="st1 st2 st3">Bash, Linux, UN</tspan><tspan x="76.9" y="0" class="st1 st2 st3">I</tspan><tspan x="80.1" y="0" class="st1 st2 st3">X, Debian, </tspan></text>
<text transform="matrix(1 0 0 1 248 283.6397)" class="st1 st2 st3">Sun Solaris, Redhat</text>
<text transform="matrix(1 0 0 1 409.667 277.6446)"><tspan x="0" y="0" class="st1 st2 st3">IMB </tspan><tspan x="22.4" y="0" class="st1 st2 st3">W</tspan><tspan x="31.7" y="0" class="st1 st2 st3">ebsphe</tspan><tspan x="67.7" y="0" class="st1 st2 st3">r</tspan><tspan x="71.5" y="0" class="st1 st2 st3">e MQ</tspan></text>
<rect x="256.7" y="162.5" class="st0" width="137.3" height="39.7"/>
<text transform="matrix(1 0 0 1 274.6665 180.6377)"><tspan x="0" y="0" class="st1 st2 st3">Srum, </tspan><tspan x="31.3" y="0" class="st1 st2 st3">I</tspan><tspan x="34.3" y="0" class="st1 st2 st3">TIL, Kanban, </tspan></text>
<text transform="matrix(1 0 0 1 274.6665 193.6397)" class="st1 st2 st3">UML, PRINCE</text>
<rect x="94.7" y="73.1" class="st0" width="437.3" height="39.7"/>
<rect y="28.1" class="st0" width="557.3" height="39.7"/>
<g>
	<defs>
		<rect id="SVGID_1_" width="626.7" height="311.5"/>
	</defs>
	<clipPath id="SVGID_2_">
		<use xlink:href="#SVGID_1_"  style="overflow:visible;"/>
	</clipPath>
	<line class="st5" x1="393.7" y1="308.3" x2="393.7" y2="8.9"/>
	<path class="st6" d="M397,308.2c0,1.8-1.5,3.3-3.3,3.3c-1.8,0-3.3-1.5-3.3-3.3c0-1.8,1.5-3.3,3.3-3.3
		C395.5,304.8,397,306.3,397,308.2"/>
	<path class="st6" d="M397,9.1c0-1.8-1.5-3.3-3.3-3.3c-1.8,0-3.3,1.5-3.3,3.3c0,1.8,1.5,3.3,3.3,3.3C395.5,12.4,397,10.9,397,9.1"/>
	<g class="st7">
		<text transform="matrix(1 0 0 1 257.3335 14.543)"><tspan x="0" y="0" class="st8 st2 st9">U</tspan><tspan x="11.3" y="0" class="st8 st2 st9">mím</tspan><tspan x="44.8" y="0" class="st8 st2 st9">e</tspan><tspan x="53.5" y="0" class="st8 st2 st9"> </tspan><tspan x="57.5" y="0" class="st8 st2 st9">a z</tspan><tspan x="79.1" y="0" class="st8 st2 st9">n</tspan><tspan x="88.6" y="0" class="st8 st2 st9">á</tspan><tspan x="97.8" y="0" class="st8 st2 st9">m</tspan><tspan x="112.5" y="0" class="st8 st2 st9">e</tspan></text>
	</g>
</g>
<text transform="matrix(1 0 0 1 13.3335 47.3037)"><tspan x="0" y="0" class="st1 st2 st3">J</tspan><tspan x="6" y="0" class="st1 st2 st3">av</tspan><tspan x="17.5" y="0" class="st1 st2 st3">a, C#, C/C++,MSSQL, MySQL, PL/SQL, </tspan><tspan x="205.3" y="0" class="st1 st2 st3">P</tspan><tspan x="212.2" y="0" class="st1 st2 st3">ost</tspan><tspan x="227.9" y="0" class="st1 st2 st3">r</tspan><tspan x="231.7" y="0" class="st1 st2 st3">geSQL, MongoDB,  </tspan></text>
<text transform="matrix(1 0 0 1 13.3335 60.3057)"><tspan x="0" y="0" class="st1 st2 st3">Visual Basic, AS</tspan><tspan x="79.2" y="0" class="st1 st2 st3 st4">P</tspan><tspan x="84" y="0" class="st1 st2 st3">.N</tspan><tspan x="94.7" y="0" class="st1 st2 st3">E</tspan><tspan x="100.9" y="0" class="st1 st2 st3">T M</tspan><tspan x="119.7" y="0" class="st1 st2 st3">V</tspan><tspan x="126.6" y="0" class="st1 st2 st3">C, </tspan><tspan x="138.5" y="0" class="st1 st2 st3">P</tspan><tspan x="145.4" y="0" class="st1 st2 st3">owerShell, Spring (Boot, Batch, Data), M</tspan><tspan x="340.4" y="0" class="st1 st2 st3">a</tspan><tspan x="346.4" y="0" class="st1 st2 st3">v</tspan><tspan x="351.9" y="0" class="st1 st2 st3">en </tspan></text>
<text transform="matrix(1 0 0 1 411.666 47.3037)"><tspan x="0" y="0" class="st1 st2 st3">ABA</tspan><tspan x="20.9" y="0" class="st1 st2 st3 st4">P</tspan><tspan x="25.8" y="0" class="st1 st2 st3">, COBOL, </tspan><tspan x="70.6" y="0" class="st1 st2 st3">P</tspan><tspan x="77.5" y="0" class="st1 st2 st3">erl, Ru</tspan><tspan x="108" y="0" class="st1 st2 st3">b</tspan><tspan x="114.2" y="0" class="st1 st2 st3">y</tspan><tspan x="118.9" y="0" class="st1 st2 st3">, </tspan></text>
<text transform="matrix(1 0 0 1 411.666 60.3057)"><tspan x="0" y="0" class="st1 st2 st3">Doc</tspan><tspan x="19.5" y="0" class="st1 st2 st3">k</tspan><tspan x="25" y="0" class="st1 st2 st3">e</tspan><tspan x="30.8" y="0" class="st1 st2 st3">r</tspan><tspan x="33.7" y="0" class="st1 st2 st3">,Redis, LIS</tspan><tspan x="84.2" y="0" class="st1 st2 st3 st4">P</tspan><tspan x="89" y="0" class="st1 st2 st3">, Delphi</tspan></text>
<text transform="matrix(1 0 0 1 110.0015 91.3037)"><tspan x="0" y="0" class="st1 st2 st3">MS Repo</tspan><tspan x="44.3" y="0" class="st1 st2 st3">r</tspan><tspan x="48.2" y="0" class="st1 st2 st3">ting Se</tspan><tspan x="82.4" y="0" class="st1 st2 st3">r</tspan><tspan x="86.3" y="0" class="st1 st2 st3">vices (SSRS), Cognos Repo</tspan><tspan x="219.8" y="0" class="st1 st2 st3">r</tspan><tspan x="223.7" y="0" class="st1 st2 st3">t Studio, </tspan></text>
<text transform="matrix(1 0 0 1 110.0015 104.3057)"><tspan x="0" y="0" class="st1 st2 st3">SAP B</tspan><tspan x="30.4" y="0" class="st1 st2 st3">W</tspan><tspan x="39.1" y="0" class="st1 st2 st3">, </tspan><tspan x="44" y="0" class="st1 st2 st3">P</tspan><tspan x="50.9" y="0" class="st1 st2 st3">ower Designe</tspan><tspan x="117.8" y="0" class="st1 st2 st3">r</tspan><tspan x="120.8" y="0" class="st1 st2 st3">, SAP Hana</tspan></text>
<text transform="matrix(1 0 0 1 411.0059 91.3037)"><tspan x="0" y="0" class="st1 st2 st3">TM1, O</tspan><tspan x="34.7" y="0" class="st1 st2 st3">L</tspan><tspan x="40.9" y="0" class="st1 st2 st3">A</tspan><tspan x="47.8" y="0" class="st1 st2 st3 st4">P</tspan><tspan x="52.7" y="0" class="st1 st2 st3">, </tspan><tspan x="57.6" y="0" class="st1 st2 st3">T</tspan><tspan x="63.7" y="0" class="st1 st2 st3">eradata, </tspan></text>
<text transform="matrix(1 0 0 1 411.0059 104.3057)" class="st1 st2 st3">ODI, Hadoop</text>
<g>
	<defs>
		<rect id="SVGID_3_" width="626.7" height="311.5"/>
	</defs>
	<clipPath id="SVGID_4_">
		<use xlink:href="#SVGID_3_"  style="overflow:visible;"/>
	</clipPath>
	<g class="st10">
		<text transform="matrix(1 0 0 1 411 14.543)"><tspan x="0" y="0" class="st8 st2 st9">N</tspan><tspan x="11.8" y="0" class="st8 st2 st9">e</tspan><tspan x="20.5" y="0" class="st8 st2 st9">m</tspan><tspan x="35.2" y="0" class="st8 st2 st9">o</tspan><tspan x="44.5" y="0" class="st8 st2 st9">ž</tspan><tspan x="52.9" y="0" class="st8 st2 st9">n</tspan><tspan x="62.4" y="0" class="st8 st2 st9">é</tspan><tspan x="71.1" y="0" class="st8 st2 st9">,</tspan><tspan x="74.3" y="0" class="st8 st2 st9"> ale </tspan><tspan x="104.4" y="0" class="st8 st2 st9">n</tspan><tspan x="113.9" y="0" class="st8 st2 st9">ašli</tspan><tspan x="140" y="0" class="st8 st2 st9"> </tspan><tspan x="144.1" y="0" class="st8 st2 st9">js</tspan><tspan x="157" y="0" class="st8 st2 st9">m</tspan><tspan x="171.7" y="0" class="st8 st2 st9">e</tspan></text>
	</g>
</g>
</svg>
